Coordinates
version=1
nRows=35
nColumns=18
inDegrees=yes

Units are S.I. units (second, meters, Newtons, ...)
Angles are in degrees.

endheader
time	ground_thorax_rot_x	ground_thorax_rot_y	ground_thorax_rot_z	ground_thorax_tx	ground_thorax_ty	ground_thorax_tz	clav_prot	clav_elev	scapula_abduction	scapula_elevation	scapula_upward_rot	scapula_winging	plane_elv	shoulder_elv	axial_rot	elbow_flexion	pro_sup
      3.24000000	      1.65695974	     -7.35318999	     -9.94587034	     -0.00423131	      0.00403036	     -0.00078352	    -20.79061342	     -4.84780838	    -11.01611785	     -3.50671025	      9.88191705	      6.23007068	    -30.78368317	     17.09668187	     34.26029720	      0.00000000	     34.32000000
      3.25000000	      1.74324862	     -7.11609361	    -10.08801442	     -0.00423131	      0.00403036	     -0.00078352	    -21.10052379	     -4.81160617	    -11.43854815	     -3.55998452	     10.11200274	      6.18956045	    -31.04030644	     16.81134195	     35.85746500	      0.00000000	     34.32000000
      3.26000000	      1.79295603	     -7.29335241	    -10.01731812	     -0.00423131	      0.00403036	     -0.00078352	    -20.95771909	     -4.54601715	    -11.23504613	     -3.35639602	     10.14848037	      6.08649643	    -30.20216450	     16.79418739	     34.29181706	      0.00000000	     34.32000000
      3.27000000	      1.78502589	     -7.28037606	    -10.05217627	     -0.00423131	      0.00403036	     -0.00078352	    -20.94914760	     -4.54157591	    -11.24224715	     -3.34190129	     10.11021936	      6.09447718	    -30.19372709	     16.77044143	     34.33260603	      0.00000000	     34.32000000
      3.28000000	      1.66859131	     -7.63858925	     -9.80832339	     -0.00423131	      0.00403036	     -0.00078352	    -20.53876094	     -4.47957065	    -10.62606128	     -3.22827640	      9.95732161	      6.07510286	    -30.55475435	     16.89123254	     33.96081777	      0.00000000	     34.32000000
      3.29000000	      1.56391294	     -7.03750975	    -10.00805982	     -0.00423131	      0.00403036	     -0.00078352	    -21.22459739	     -4.72985723	    -11.75682393	     -3.46240662	      9.96111869	      6.21310491	    -30.92475342	     16.56009984	     35.71599163	      0.00000000	     34.32000000
      3.30000000	      1.45251642	     -7.36755887	    -10.07984435	     -0.00423131	      0.00403036	     -0.00078352	    -20.88915328	     -4.91659850	    -11.26657666	     -3.51732258	      9.70685430	      6.30516702	    -30.01851181	     16.98634017	     33.19000942	      0.00000000	     34.32000000
      3.31000000	      1.51265630	     -7.36097253	    -10.09928872	     -0.00423131	      0.00403036	     -0.00078352	    -20.92709189	     -4.87604469	    -11.32217894	     -3.49828082	      9.74364768	      6.28648955	    -30.03658212	     17.04376128	     33.25528085	      0.00000000	     34.32000000
      3.32000000	      1.47765357	     -7.30919488	    -10.06378734	     -0.00423131	      0.00403036	     -0.00078352	    -20.99910488	     -4.82732669	    -11.36180287	     -3.51413328	      9.92264133	      6.23306666	    -30.94772271	     16.98815247	     32.94162562	      0.00000000	     34.32000000
      3.33000000	      1.46837200	     -7.39169810	    -10.06719268	     -0.00423131	      0.00403036	     -0.00078352	    -20.96647503	     -4.82437031	    -11.28119102	     -3.52231760	      9.96754608	      6.21789192	    -31.25273456	     16.93175503	     33.51852077	      0.00000000	     34.32000000
      3.34000000	      1.68308622	     -7.51839566	    -10.01638718	     -0.00423131	      0.00403036	     -0.00078352	    -20.98258991	     -4.49722654	    -11.15432308	     -3.38810587	     10.39602212	      6.01166445	    -32.35167252	     15.83957161	     43.96555063	      0.00000000	     34.32000000
      3.35000000	      1.50583653	     -7.44112100	    -10.10878653	     -0.00423131	      0.00403036	     -0.00078352	    -21.04903325	     -4.76372719	    -11.44943494	     -3.47522631	      9.94964337	      6.21125660	    -30.76106207	     16.40419134	     38.76716873	      0.00000000	     34.32000000
      3.36000000	      1.68899800	     -7.49280185	     -9.98092469	     -0.00423131	      0.00403036	     -0.00078352	    -20.99973068	     -4.50737494	    -11.36036353	     -3.30753880	     10.07087175	      6.09879544	    -30.48684412	     16.42544684	     37.88773562	      0.00000000	     34.32000000
      3.37000000	      1.56730483	     -7.42924223	    -10.03256053	     -0.00423131	      0.00403036	     -0.00078352	    -21.09643385	     -4.62268414	    -11.41950570	     -3.44276431	     10.21794458	      6.10457881	    -31.39017752	     16.26818850	     38.83785966	      0.00000000	     34.32000000
      3.38000000	      1.73035060	     -7.53184854	    -10.07149129	     -0.00423131	      0.00403036	     -0.00078352	    -21.03830264	     -4.48503229	    -11.33389772	     -3.34218921	     10.25139232	      6.04945065	    -30.22461504	     16.49828394	     36.65834817	      0.00000000	     34.32000000
      3.39000000	      1.77090227	     -7.59397987	     -9.97503191	     -0.00423131	      0.00403036	     -0.00078352	    -21.01572290	     -4.34125823	    -11.40242265	     -3.19373989	     10.12050970	      6.03849604	    -29.57372475	     16.65570316	     35.43946902	      0.00000000	     34.32000000
      3.40000000	      1.53271919	     -7.58175753	    -10.07868263	     -0.00423131	      0.00403036	     -0.00078352	    -21.09770983	     -4.58006509	    -11.39660118	     -3.42767512	     10.28274008	      6.07543950	    -31.28578978	     16.18956426	     38.15803394	      0.00000000	     34.32000000
      3.41000000	      1.60238079	     -7.71108053	    -10.10299270	     -0.00423131	      0.00403036	     -0.00078352	    -21.05292291	     -4.58398703	    -11.24495213	     -3.46453171	     10.41530472	      6.03954404	    -31.46298848	     15.99322819	     40.08437448	      0.00000000	     34.32000000
      3.42000000	      1.58712502	     -7.71679191	    -10.07093019	     -0.00423131	      0.00403036	     -0.00078352	    -21.05882166	     -4.54706312	    -11.26112802	     -3.43774524	     10.42061483	      6.02716588	    -31.83315383	     15.83977112	     42.28527627	      0.00000000	     34.32000000
      3.43000000	      1.50377194	     -7.62691276	    -10.09720336	     -0.00423131	      0.00403036	     -0.00078352	    -21.10620464	     -4.69209090	    -11.39717498	     -3.50805063	     10.25835169	      6.11636106	    -31.50225252	     16.07084010	     40.43886755	      0.00000000	     34.32000000
      3.44000000	      1.59027114	     -7.57470084	    -10.10782415	     -0.00423131	      0.00403036	     -0.00078352	    -21.12324623	     -4.61479625	    -11.38787708	     -3.47822253	     10.36375968	      6.06770262	    -31.40504658	     16.11536909	     39.94818833	      0.00000000	     34.32000000
      3.45000000	      1.63572043	     -7.65269612	    -10.08939225	     -0.00423131	      0.00403036	     -0.00078352	    -21.03930702	     -4.57221544	    -11.23511323	     -3.44898550	     10.39483102	      6.03944084	    -31.32405079	     16.25949337	     39.10653276	      0.00000000	     34.32000000
      3.46000000	      1.58319030	     -7.74808615	    -10.04282963	     -0.00423131	      0.00403036	     -0.00078352	    -20.95498831	     -4.55423681	    -11.11720121	     -3.41810291	     10.35060532	      6.03781320	    -31.42340907	     16.26708987	     39.51295009	      0.00000000	     34.32000000
      3.47000000	      1.51793072	     -7.85639790	    -10.08882815	     -0.00423131	      0.00403036	     -0.00078352	    -20.88229364	     -4.66652222	    -11.06349915	     -3.45049176	     10.16783127	      6.11139443	    -30.85300911	     16.43143774	     38.47587513	      0.00000000	     34.32000000
      3.48000000	      1.32682706	     -7.91953455	    -10.06764785	     -0.00423131	      0.00403036	     -0.00078352	    -20.80717633	     -4.88431164	    -10.95065895	     -3.57899593	     10.03839566	      6.20361252	    -31.47422758	     16.48766603	     38.67986849	      0.00000000	     34.32000000
      3.49000000	      1.67475627	     -7.96431034	    -10.04888770	     -0.00423131	      0.00403036	     -0.00078352	    -20.84143903	     -4.54351279	    -10.83587615	     -3.44610107	     10.50685912	      5.98441680	    -31.63543868	     16.41970034	     38.94068806	      0.00000000	     34.32000000
      3.50000000	      1.62910787	     -7.94124920	    -10.11946153	     -0.00423131	      0.00403036	     -0.00078352	    -20.87843393	     -4.64313835	    -10.96274884	     -3.48202854	     10.34933637	      6.05809883	    -30.90869023	     16.59223089	     37.78241526	      0.00000000	     34.32000000
      3.51000000	      1.71913075	     -8.05142061	    -10.06765275	     -0.00423131	      0.00403036	     -0.00078352	    -20.74109391	     -4.48294190	    -10.69416200	     -3.38454606	     10.47382734	      5.96485865	    -30.98491793	     16.59569876	     37.47085271	      0.00000000	     34.32000000
      3.52000000	      1.81119971	     -8.07083766	     -9.97406398	     -0.00423131	      0.00403036	     -0.00078352	    -20.72850163	     -4.31799213	    -10.83236171	     -3.19703972	     10.25765856	      5.97010587	    -29.92609679	     16.91758701	     35.74660091	      0.00000000	     34.32000000
      3.53000000	      1.55515914	     -7.84340745	    -10.13962652	     -0.00423131	      0.00403036	     -0.00078352	    -21.06339160	     -4.64799614	    -11.27784735	     -3.49937609	     10.35981686	      6.07360760	    -31.14759036	     16.44702849	     37.33145151	      0.00000000	     34.32000000
      3.54000000	      1.59585030	     -7.84687557	    -10.09194852	     -0.00423131	      0.00403036	     -0.00078352	    -21.11079068	     -4.59396288	    -11.32331958	     -3.48525536	     10.45081722	      6.03825887	    -31.47830909	     16.28764724	     39.03035396	      0.00000000	     34.32000000
      3.55000000	      1.52077678	     -7.71765088	    -10.13005330	     -0.00423131	      0.00403036	     -0.00078352	    -21.19752602	     -4.65703452	    -11.52089035	     -3.50809935	     10.33796983	      6.09344113	    -31.19984301	     16.33159523	     38.41492351	      0.00000000	     34.32000000
      3.56000000	      1.64341797	     -7.74161947	    -10.11648179	     -0.00423131	      0.00403036	     -0.00078352	    -21.19135132	     -4.43601596	    -11.45750892	     -3.39050099	     10.53285592	      5.97632163	    -31.36431277	     16.03969580	     40.41762650	      0.00000000	     34.32000000
      3.57000000	      1.60908463	     -7.72158503	    -10.11659037	     -0.00423131	      0.00403036	     -0.00078352	    -21.18144022	     -4.42818406	    -11.44492756	     -3.38239239	     10.52775467	      5.97469933	    -31.35149012	     16.02573049	     40.42635375	      0.00000000	     34.32000000
      3.58000000	      1.49010920	     -7.66510296	    -10.14252693	     -0.00423131	      0.00403036	     -0.00078352	    -21.14136068	     -4.63926500	    -11.60600376	     -3.40177129	     10.01292551	      6.16543093	    -29.68003800	     17.01722904	     31.99529141	      0.00000000	     34.32000000
